<?xml version="1.0" encoding="UTF-8"?>
<svg width="512px" height="512px" viewBox="0 0 512 512" version="1.1" xmlns="http://www.w3.org/2000/svg" xmlns:xlink="http://www.w3.org/1999/xlink">
    <!-- Generator: Sketch 57.1 (83088) - https://sketch.com -->
    <title>late-night</title>
    <desc>Created with Sketch.</desc>
    <defs>
        <linearGradient x1="50%" y1="0%" x2="50%" y2="100%" id="linearGradient-1">
            <stop stop-color="#1B1B1B" offset="0%"></stop>
            <stop stop-color="#000000" offset="100%"></stop>
        </linearGradient>
        <path d="M226.9175,317.815 C231.9575,319.77875 237.705,319.6525 242.7925,317.205 L308.675,285.50375 C315.5975,282.1725 320.000003,275.165 320.000003,267.47875 L320.000003,52.522625 C320.000003,44.836125 315.5975,37.82975 308.675,34.4985 L242.7925,2.7960125 C236.11625,-0.416415 228.3025,0.37043 222.44375,4.630225 C221.60625,5.23875 220.80875,5.918175 220.06125,6.666925 L93.93625,121.73275 L38.999,80.030875 C33.884875,76.148875 26.731625,76.466875 21.981875,80.7875 L4.3617,96.815625 C-1.4481625,102.100625 -1.454825,111.24075 4.3473125,116.53425 L51.99075,160 L4.3473125,203.46625 C-1.454825,208.76 -1.4481625,217.9 4.3617,223.185 L21.981875,239.2125 C26.731625,243.53375 33.884875,243.85125 38.999,239.97 L93.93625,198.2675 L220.06125,313.33375 C222.05625,315.33 224.39875,316.83375 226.9175,317.815 Z M240.04875,87.356625 L144.34875,160 L240.04875,232.64375 L240.04875,87.356625 Z" id="path-2"></path>
        <linearGradient x1="50.0000484%" y1="-3.91645412e-07%" x2="50.0000484%" y2="99.999921%" id="linearGradient-4">
            <stop stop-color="#FFFFFF" offset="0%"></stop>
            <stop stop-color="#FFFFFF" stop-opacity="0" offset="100%"></stop>
        </linearGradient>
    </defs>
    <g id="Page-1" stroke="none" stroke-width="1" fill="none" fill-rule="evenodd">
        <g id="late-night">
            <circle id="Oval" fill="url(#linearGradient-1)" cx="256" cy="256" r="256"></circle>
            <g id="vscode" transform="translate(96.000000, 96.000000)">
                <mask id="mask-3" fill="white">
                    <use xlink:href="#path-2"></use>
                </mask>
                <g id="Shape"></g>
                <g id="Group" mask="url(#mask-3)">
                    <g transform="translate(-1.250000, 0.000000)">
                        <path d="M309.925,34.547875 L243.99125,2.801725 C236.36,-0.8728775 227.23875,0.67715125 221.24875,6.66665 L5.4046375,203.46625 C-0.401025,208.76 -0.39435,217.9 5.4190375,223.185 L23.049875,239.2125 C27.802625,243.53375 34.96025,243.85125 40.077375,239.97 L300.00375,42.783625 C308.72375,36.168375 321.24875,42.387875 321.24875,53.333375 L321.24875,52.567875 C321.24875,44.88475 316.8475,37.880875 309.925,34.547875 Z" id="Path" fill="#0065A9" fill-rule="nonzero"></path>
                        <path d="M309.925,285.4525 L243.99125,317.19875 C236.36,320.8725 227.23875,319.3225 221.24875,313.33375 L5.4046375,116.534 C-0.401025,111.240625 -0.39435,102.10025 5.4190375,96.815375 L23.049875,80.78725 C27.802625,76.466625 34.96025,76.1485 40.077375,80.030625 L300.00375,277.21625 C308.72375,283.83125 321.24875,277.6125 321.24875,266.66625 L321.24875,267.4325 C321.24875,275.115 316.8475,282.11875 309.925,285.4525 Z" id="Path" fill="#007ACC" fill-rule="nonzero"></path>
                        <path d="M243.995,317.20375 C236.36125,320.875 227.24,319.32375 221.25,313.33375 C228.63,320.71375 241.25,315.48625 241.25,305.04875 L241.25,14.95075 C241.25,4.5132125 228.63,-0.71396875 221.25,6.6665125 C227.24,0.6764575 236.36125,-0.87575875 243.995,2.7956 L309.9175,34.498125 C316.845,37.829375 321.25,44.83575 321.25,52.52225 L321.25,267.47875 C321.25,275.165 316.845,282.17125 309.9175,285.5025 L243.995,317.20375 Z" id="Path" fill="#1F9CF0" fill-rule="nonzero"></path>
                        <g id="Group" opacity="0.25" style="mix-blend-mode: overlay;" stroke-width="1" fill="none" fill-rule="evenodd">
                            <path d="M227.9725,317.815 C233.0125,319.7775 238.76,319.6525 243.84625,317.205 L309.72875,285.5025 C316.6525,282.17125 321.055,275.165 321.055,267.47875 L321.055,52.522375 C321.055,44.835875 316.6525,37.8295 309.73,34.49825 L243.84625,2.7958125 C237.17125,-0.41662375 229.3575,0.37022125 223.4975,4.6300125 C222.66125,5.2385375 221.86375,5.9179625 221.115,6.6667125 L94.990875,121.7325 L40.053625,80.030625 C34.939625,76.148625 27.78625,76.46675 23.0365,80.78725 L5.4163875,96.815375 C-0.393475,102.100375 -0.4001375,111.240625 5.402,116.534125 L53.0455,160 L5.402,203.46625 C-0.4001375,208.76 -0.393475,217.9 5.4163875,223.185 L23.0365,239.2125 C27.78625,243.53375 34.939625,243.85125 40.053625,239.97 L94.990875,198.2675 L221.115,313.33375 C223.11,315.33 225.45375,316.83375 227.9725,317.815 Z M241.10375,87.356375 L145.40375,160 L241.10375,232.64375 L241.10375,87.356375 Z" id="Shape" fill="url(#linearGradient-4)"></path>
                        </g>
                    </g>
                </g>
            </g>
        </g>
    </g>
</svg>